HIERARCHY
ROOT Hips
{
    OFFSET 0.000000 0.000000 0.000000
    CHANNELS 6 Xposition Yposition Zposition Zrotation Xrotation Yrotation
    JOINT Spine
    {
        OFFSET -0.000000 14.517291 0.000000
        CHANNELS 3 Zrotation Xrotation Yrotation
        JOINT Spine1
        {
            OFFSET -0.000000 37.558300 0.000000
            CHANNELS 3 Zrotation Xrotation Yrotation
            JOINT Neck
            {
                OFFSET -0.000000 37.404057 3.400369
                CHANNELS 3 Zrotation Xrotation Yrotation
                JOINT Head
                {
                    OFFSET -0.000000 24.785618 -3.540803
                    CHANNELS 3 Zrotation Xrotation Yrotation
                    End Site
                    {
                        OFFSET -0.000000 35.408028 0.000000
                    }
                }
            }
            JOINT LeftShoulder
            {
                OFFSET 6.992933 33.973492 -0.192664
                CHANNELS 3 Zrotation Xrotation Yrotation
                JOINT LeftArm
                {
                    OFFSET 21.527611 0.000000 0.000000
                    CHANNELS 3 Zrotation Xrotation Yrotation
                    JOINT LeftForeArm
                    {
                        OFFSET 56.353916 0.000000 0.000000
                        CHANNELS 3 Zrotation Xrotation Yrotation
                        JOINT LeftHand
                        {
                            OFFSET 47.774071 0.000000 0.000000
                            CHANNELS 3 Zrotation Xrotation Yrotation
                            End Site
                            {
                                OFFSET 26.556021 0.000000 0.000000
                            }
                        }
                    }
                }
            }
            JOINT RightShoulder
            {
                OFFSET -7.065357 33.973492 -0.192664
                CHANNELS 3 Zrotation Xrotation Yrotation
                JOINT RightArm
                {
                    OFFSET -21.527611 0.000000 0.000000
                    CHANNELS 3 Zrotation Xrotation Yrotation
                    JOINT RightForeArm
                    {
                        OFFSET -56.353916 0.000000 0.000000
                        CHANNELS 3 Zrotation Xrotation Yrotation
                        JOINT RightHand
                        {
                            OFFSET -47.774071 0.000000 0.000000
                            CHANNELS 3 Zrotation Xrotation Yrotation
                            End Site
                            {
                                OFFSET -26.556021 0.000000 0.000000
                            }
                        }
                    }
                }
            }
        }
    }
    JOINT LeftUpLeg
    {
        OFFSET 17.704014 0.000000 0.000000
        CHANNELS 3 Zrotation Xrotation Yrotation
        JOINT LeftLeg
        {
            OFFSET -0.000000 -81.181816 0.000000
            CHANNELS 3 Zrotation Xrotation Yrotation
            JOINT LeftFoot
            {
                OFFSET -0.000000 -62.821102 0.000000
                CHANNELS 3 Zrotation Xrotation Yrotation
                JOINT LeftToeBase
                {
                    OFFSET -0.000000 -11.507608 26.556021
                    CHANNELS 3 Zrotation Xrotation Yrotation
                    End Site
                    {
                        OFFSET -0.000000 0.000000 7.081605
                    }
                }
            }
        }
    }
    JOINT RightUpLeg
    {
        OFFSET -17.704014 0.000000 0.000000
        CHANNELS 3 Zrotation Xrotation Yrotation
        JOINT RightLeg
        {
            OFFSET -0.000000 -81.181816 0.000000
            CHANNELS 3 Zrotation Xrotation Yrotation
            JOINT RightFoot
            {
                OFFSET -0.000000 -62.821102 0.000000
                CHANNELS 3 Zrotation Xrotation Yrotation
                JOINT RightToeBase
                {
                    OFFSET -0.000000 -11.507608 26.556021
                    CHANNELS 3 Zrotation Xrotation Yrotation
                    End Site
                    {
                        OFFSET -0.000000 0.000000 7.081605
                    }
                }
            }
        }
    }
}
MOTION
Frames:    11
Frame Time:    0.008333
15.271648    155.896591    -95.494865    6.330822    0.777263    21.221577    8.673174    -0.743079    0.299719    4.247665    3.446229    -0.042053    18.602142    -4.794278    0.978771    -10.752798    10.345191    -3.138432    6.315012    9.713329    -19.542501    -33.653965    23.599899    -51.717495    5.759693    -20.837818    -99.470528    11.826103    -15.221889    -8.729115    -5.802919    -1.020686    -2.598679    29.777496    -20.929085    66.031204    -15.096226    -13.542231    72.972755    -1.371981    -2.830338    34.602291    -2.582147    1.235475    0.545697    -10.188452    27.806906    -19.721518    10.542655    -23.588629    43.566895    0.000000    0.000000    0.000000    -27.240191    -26.208275    -9.270207    15.236304    33.765949    -11.237881    8.359648    3.076169    -12.278225    0.000000    0.000000    0.000000    
15.129392    155.916595    -95.413330    6.220028    0.624553    21.241796    8.553571    -0.782957    0.312145    4.176429    3.524127    -0.039469    18.452824    -4.808272    0.966465    -10.563004    10.318416    -3.116620    6.295637    9.673908    -19.512300    -33.633907    23.641533    -51.698727    5.703115    -20.791571    -99.520134    11.974596    -15.240834    -8.694323    -5.858555    -1.051750    -2.568743    29.762299    -20.828079    66.006233    -15.044813    -13.647015    72.890266    -1.384552    -2.999183    34.696266    -2.378184    1.325710    0.483567    -10.177623    27.847502    -19.702761    10.527146    -23.653294    43.587692    0.000000    0.000000    0.000000    -26.975300    -26.050886    -9.252369    15.189497    33.685276    -11.200933    8.303522    3.056658    -12.263717    0.000000    0.000000    0.000000    
14.980856    155.935379    -95.339539    6.094953    0.481408    21.278275    8.456433    -0.783060    0.327927    4.060726    3.469329    -0.028795    18.557077    -4.683054    1.000530    -10.680749    10.215133    -3.097078    6.282621    9.730130    -19.506006    -33.569683    23.651913    -51.692619    5.723988    -20.745279    -99.496864    11.925038    -15.169815    -8.711266    -5.833240    -0.974280    -2.565740    29.776720    -20.814547    66.024895    -15.031773    -13.588060    72.859375    -1.363678    -2.946734    34.575062    -2.162523    1.386090    0.411074    -10.163772    27.917177    -19.705853    10.522564    -23.717068    43.620358    0.000000    0.000000    0.000000    -26.702490    -25.907339    -9.255104    15.122146    33.613045    -11.204753    8.263118    3.062431    -12.201099    0.000000    0.000000    0.000000    
14.826080    155.955765    -95.269562    5.968345    0.339872    21.314507    8.357773    -0.786641    0.320031    3.960408    3.449231    -0.027684    18.486189    -4.651980    1.005186    -10.588242    10.182944    -3.071339    6.259928    9.734161    -19.471775    -33.568783    23.673195    -51.591438    5.985857    -20.828997    -99.385765    11.011643    -14.916645    -8.872660    -5.857999    -0.898144    -2.543986    29.873714    -20.838333    66.112350    -14.861291    -13.554013    72.833130    -1.439350    -3.071777    34.732510    -1.948639    1.441325    0.329586    -10.144586    27.985472    -19.689508    10.509077    -23.787617    43.650284    0.000000    0.000000    0.000000    -26.427626    -25.769884    -9.254911    15.055908    33.544941    -11.203974    8.216708    3.066448    -12.150136    0.000000    0.000000    0.000000    
14.665428    155.978043    -95.199905    5.840788    0.203747    21.351217    8.209287    -0.786374    0.335439    3.941186    3.422951    -0.020749    18.450224    -4.658173    1.026779    -10.588472    10.182207    -3.042958    6.172035    9.748980    -19.436195    -33.464634    23.701645    -51.586834    5.958829    -20.746904    -99.414063    11.053041    -14.859045    -8.836309    -5.905965    -0.852605    -2.541105    29.940037    -20.845718    66.146187    -14.778398    -13.499271    72.824409    -1.406974    -3.068914    34.665363    -1.732964    1.491455    0.259673    -10.120594    28.050650    -19.667675    10.481409    -23.858702    43.657532    0.000000    0.000000    0.000000    -26.155558    -25.643715    -9.255855    14.994466    33.484081    -11.208716    8.167518    3.087836    -12.099080    0.000000    0.000000    0.000000    
14.498971    156.001053    -95.129929    5.713074    0.061302    21.380150    8.047250    -0.795340    0.353187    3.896566    3.416175    -0.013054    18.363091    -4.634185    1.017941    -10.421078    10.123610    -3.027524    6.179376    9.755619    -19.408806    -33.573383    23.798605    -51.275494    7.893223    -21.530815    -98.404495    6.100754    -13.270630    -9.631298    -5.901674    -0.890459    -2.491267    29.876097    -20.745127    66.061646    -14.830395    -13.557559    72.741844    -1.427162    -3.112530    34.663307    -1.501878    1.560262    0.170204    -10.135792    28.086067    -19.620378    10.467509    -23.915976    43.669872    0.000000    0.000000    0.000000    -25.876276    -25.524376    -9.215906    14.954185    33.426586    -11.219333    8.108951    3.112807    -12.062956    0.000000    0.000000    0.000000    
14.323733    156.021530    -95.070099    5.582504    -0.071877    21.416622    7.880329    -0.781126    0.346791    3.856694    3.365663    -0.012104    18.366821    -4.591006    1.038177    -10.393291    10.058689    -3.004593    6.142947    9.783422    -19.371859    -33.461628    23.686670    -51.485291    6.757189    -20.866404    -98.756439    8.667434    -14.016921    -9.412149    -5.895271    -0.784826    -2.466303    29.952969    -20.819941    66.139397    -14.750571    -13.478531    72.699081    -1.370681    -3.083213    34.705719    -1.263363    1.609189    0.064468    -10.169777    28.128702    -19.592073    10.489047    -23.955694    43.710838    0.000000    0.000000    0.000000    -25.604769    -25.418024    -9.146835    14.945770    33.364445    -11.230567    8.084870    3.136243    -12.101618    0.000000    0.000000    0.000000    
14.139975    156.043427    -95.016006    5.446620    -0.191332    21.454947    8.503968    -0.451047    -1.261604    3.396182    2.428251    -0.500596    16.726856    -3.120484    1.594723    -9.227962    9.601017    -1.861814    3.895305    10.163502    -17.427746    -32.523872    24.100338    -49.801697    6.463837    -20.876343    -99.537193    8.649430    -14.260092    -9.438433    -6.776796    -0.049380    0.419198    31.337696    -21.420488    66.299896    -14.217031    -12.308715    73.348320    -1.789545    -2.281651    34.162281    -1.026202    1.634590    0.013536    -10.170219    28.191128    -19.615076    10.489769    -24.010494    43.752132    0.000000    0.000000    0.000000    -25.331512    -25.329624    -9.057792    14.948777    33.301029    -11.258175    8.028852    3.153349    -12.147212    0.000000    0.000000    0.000000    
13.946737    156.064270    -94.963142    5.311839    -0.312890    21.490732    7.498391    -0.783050    0.313044    3.826806    3.321583    -0.020424    18.222488    -4.607168    1.068244    -10.142271    9.971395    -2.941719    6.066914    9.736058    -19.239651    -33.417431    23.669600    -51.368523    6.491518    -20.504457    -99.034325    8.851211    -13.914780    -9.302320    -5.961450    -0.744758    -2.399126    30.068569    -20.778309    66.210648    -14.757989    -13.417693    72.585144    -1.455056    -3.063299    34.630741    -0.787906    1.652761    -0.038531    -10.161642    28.273474    -19.670038    10.497614    -24.066174    43.814674    0.000000    0.000000    0.000000    -25.043573    -25.242907    -8.970891    14.918550    33.240623    -11.236209    7.999064    3.167758    -12.218483    0.000000    0.000000    0.000000    
13.745517    156.083633    -94.923241    5.178101    -0.428236    21.521313    8.035782    -0.563532    -1.245329    3.437499    2.600363    -0.503540    16.623938    -3.182191    1.618186    -8.984456    9.408475    -1.828663    3.927361    10.050869    -17.375870    -32.458221    24.079824    -49.815071    6.338407    -20.656334    -99.612907    8.781933    -14.174957    -9.402656    -6.859149    -0.081233    0.429906    31.374859    -21.361063    66.359108    -14.315741    -12.414425    73.096878    -1.756692    -2.354352    34.189266    -0.558806    1.659531    -0.089117    -10.148064    28.353813    -19.700752    10.528542    -24.101965    43.874054    0.000000    0.000000    0.000000    -24.755001    -25.173122    -8.870812    14.892896    33.184662    -11.257210    7.983839    3.182700    -12.275287    0.000000    0.000000    0.000000    
13.542681    156.096771    -94.891014    5.038202    -0.540958    21.553732    7.079078    -0.794639    0.290228    3.775774    3.332805    -0.026517    18.111944    -4.643022    1.087559    -9.820498    9.803082    -2.902335    6.078769    9.654196    -19.142061    -33.314716    23.688324    -51.410065    5.345750    -20.000414    -99.783752    10.963161    -14.729728    -8.661281    -5.987668    -0.758604    -2.333677    30.179575    -20.705410    66.277374    -14.834151    -13.444328    72.394943    -1.356361    -3.041024    34.616280    -0.327960    1.645017    -0.133428    -10.122437    28.465195    -19.749365    10.532443    -24.173752    43.932713    0.000000    0.000000    0.000000    -24.467842    -25.112780    -8.765271    14.880147    33.128063    -11.247332    7.943929    3.203663    -12.365859    0.000000    0.000000    0.000000    
